<mxfile host="app.diagrams.net" agent="Mozilla/5.0 (Macintosh; Intel Mac OS X 10.15; rv:136.0) Gecko/20100101 Firefox/136.0" version="26.0.13">
  <diagram id="R2lEEEUBdFMjLlhIrx00" name="Page-1">
    <mxGraphModel dx="1972" dy="1754" grid="1" gridSize="10" guides="1" tooltips="1" connect="1" arrows="1" fold="1" page="1" pageScale="1" pageWidth="850" pageHeight="1100" math="0" shadow="0" extFonts="Permanent Marker^https://fonts.googleapis.com/css?family=Permanent+Marker">
      <root>
        <mxCell id="0" />
        <mxCell id="1" parent="0" />
        <mxCell id="WtPHQBsvvFfomwOvvqpD-3" value="User" style="shape=table;startSize=30;container=1;collapsible=1;childLayout=tableLayout;fixedRows=1;rowLines=0;fontStyle=1;align=center;resizeLast=1;html=1;verticalAlign=top;" vertex="1" parent="1">
          <mxGeometry x="-120" y="100" width="180" height="300" as="geometry" />
        </mxCell>
        <mxCell id="WtPHQBsvvFfomwOvvqpD-4" value="" style="shape=tableRow;horizontal=0;startSize=0;swimlaneHead=0;swimlaneBody=0;fillColor=none;collapsible=0;dropTarget=0;points=[[0,0.5],[1,0.5]];portConstraint=eastwest;top=0;left=0;right=0;bottom=1;" vertex="1" parent="WtPHQBsvvFfomwOvvqpD-3">
          <mxGeometry y="30" width="180" height="30" as="geometry" />
        </mxCell>
        <mxCell id="WtPHQBsvvFfomwOvvqpD-5" value="PK" style="shape=partialRectangle;connectable=0;fillColor=none;top=0;left=0;bottom=0;right=0;fontStyle=1;overflow=hidden;whiteSpace=wrap;html=1;" vertex="1" parent="WtPHQBsvvFfomwOvvqpD-4">
          <mxGeometry width="30" height="30" as="geometry">
            <mxRectangle width="30" height="30" as="alternateBounds" />
          </mxGeometry>
        </mxCell>
        <mxCell id="WtPHQBsvvFfomwOvvqpD-6" value="User_ID" style="shape=partialRectangle;connectable=0;fillColor=none;top=0;left=0;bottom=0;right=0;align=left;spacingLeft=6;fontStyle=5;overflow=hidden;whiteSpace=wrap;html=1;" vertex="1" parent="WtPHQBsvvFfomwOvvqpD-4">
          <mxGeometry x="30" width="150" height="30" as="geometry">
            <mxRectangle width="150" height="30" as="alternateBounds" />
          </mxGeometry>
        </mxCell>
        <mxCell id="WtPHQBsvvFfomwOvvqpD-141" style="shape=tableRow;horizontal=0;startSize=0;swimlaneHead=0;swimlaneBody=0;fillColor=none;collapsible=0;dropTarget=0;points=[[0,0.5],[1,0.5]];portConstraint=eastwest;top=0;left=0;right=0;bottom=0;" vertex="1" parent="WtPHQBsvvFfomwOvvqpD-3">
          <mxGeometry y="60" width="180" height="30" as="geometry" />
        </mxCell>
        <mxCell id="WtPHQBsvvFfomwOvvqpD-142" style="shape=partialRectangle;connectable=0;fillColor=none;top=0;left=0;bottom=0;right=0;editable=1;overflow=hidden;whiteSpace=wrap;html=1;" vertex="1" parent="WtPHQBsvvFfomwOvvqpD-141">
          <mxGeometry width="30" height="30" as="geometry">
            <mxRectangle width="30" height="30" as="alternateBounds" />
          </mxGeometry>
        </mxCell>
        <mxCell id="WtPHQBsvvFfomwOvvqpD-143" value="Username" style="shape=partialRectangle;connectable=0;fillColor=none;top=0;left=0;bottom=0;right=0;align=left;spacingLeft=6;overflow=hidden;whiteSpace=wrap;html=1;" vertex="1" parent="WtPHQBsvvFfomwOvvqpD-141">
          <mxGeometry x="30" width="150" height="30" as="geometry">
            <mxRectangle width="150" height="30" as="alternateBounds" />
          </mxGeometry>
        </mxCell>
        <mxCell id="WtPHQBsvvFfomwOvvqpD-7" value="" style="shape=tableRow;horizontal=0;startSize=0;swimlaneHead=0;swimlaneBody=0;fillColor=none;collapsible=0;dropTarget=0;points=[[0,0.5],[1,0.5]];portConstraint=eastwest;top=0;left=0;right=0;bottom=0;" vertex="1" parent="WtPHQBsvvFfomwOvvqpD-3">
          <mxGeometry y="90" width="180" height="30" as="geometry" />
        </mxCell>
        <mxCell id="WtPHQBsvvFfomwOvvqpD-8" value="" style="shape=partialRectangle;connectable=0;fillColor=none;top=0;left=0;bottom=0;right=0;editable=1;overflow=hidden;whiteSpace=wrap;html=1;" vertex="1" parent="WtPHQBsvvFfomwOvvqpD-7">
          <mxGeometry width="30" height="30" as="geometry">
            <mxRectangle width="30" height="30" as="alternateBounds" />
          </mxGeometry>
        </mxCell>
        <mxCell id="WtPHQBsvvFfomwOvvqpD-9" value="First_Name" style="shape=partialRectangle;connectable=0;fillColor=none;top=0;left=0;bottom=0;right=0;align=left;spacingLeft=6;overflow=hidden;whiteSpace=wrap;html=1;" vertex="1" parent="WtPHQBsvvFfomwOvvqpD-7">
          <mxGeometry x="30" width="150" height="30" as="geometry">
            <mxRectangle width="150" height="30" as="alternateBounds" />
          </mxGeometry>
        </mxCell>
        <mxCell id="WtPHQBsvvFfomwOvvqpD-10" value="" style="shape=tableRow;horizontal=0;startSize=0;swimlaneHead=0;swimlaneBody=0;fillColor=none;collapsible=0;dropTarget=0;points=[[0,0.5],[1,0.5]];portConstraint=eastwest;top=0;left=0;right=0;bottom=0;" vertex="1" parent="WtPHQBsvvFfomwOvvqpD-3">
          <mxGeometry y="120" width="180" height="30" as="geometry" />
        </mxCell>
        <mxCell id="WtPHQBsvvFfomwOvvqpD-11" value="" style="shape=partialRectangle;connectable=0;fillColor=none;top=0;left=0;bottom=0;right=0;editable=1;overflow=hidden;whiteSpace=wrap;html=1;" vertex="1" parent="WtPHQBsvvFfomwOvvqpD-10">
          <mxGeometry width="30" height="30" as="geometry">
            <mxRectangle width="30" height="30" as="alternateBounds" />
          </mxGeometry>
        </mxCell>
        <mxCell id="WtPHQBsvvFfomwOvvqpD-12" value="Last_Name" style="shape=partialRectangle;connectable=0;fillColor=none;top=0;left=0;bottom=0;right=0;align=left;spacingLeft=6;overflow=hidden;whiteSpace=wrap;html=1;" vertex="1" parent="WtPHQBsvvFfomwOvvqpD-10">
          <mxGeometry x="30" width="150" height="30" as="geometry">
            <mxRectangle width="150" height="30" as="alternateBounds" />
          </mxGeometry>
        </mxCell>
        <mxCell id="WtPHQBsvvFfomwOvvqpD-13" value="" style="shape=tableRow;horizontal=0;startSize=0;swimlaneHead=0;swimlaneBody=0;fillColor=none;collapsible=0;dropTarget=0;points=[[0,0.5],[1,0.5]];portConstraint=eastwest;top=0;left=0;right=0;bottom=0;" vertex="1" parent="WtPHQBsvvFfomwOvvqpD-3">
          <mxGeometry y="150" width="180" height="30" as="geometry" />
        </mxCell>
        <mxCell id="WtPHQBsvvFfomwOvvqpD-14" value="" style="shape=partialRectangle;connectable=0;fillColor=none;top=0;left=0;bottom=0;right=0;editable=1;overflow=hidden;whiteSpace=wrap;html=1;" vertex="1" parent="WtPHQBsvvFfomwOvvqpD-13">
          <mxGeometry width="30" height="30" as="geometry">
            <mxRectangle width="30" height="30" as="alternateBounds" />
          </mxGeometry>
        </mxCell>
        <mxCell id="WtPHQBsvvFfomwOvvqpD-15" value="User_Type" style="shape=partialRectangle;connectable=0;fillColor=none;top=0;left=0;bottom=0;right=0;align=left;spacingLeft=6;overflow=hidden;whiteSpace=wrap;html=1;" vertex="1" parent="WtPHQBsvvFfomwOvvqpD-13">
          <mxGeometry x="30" width="150" height="30" as="geometry">
            <mxRectangle width="150" height="30" as="alternateBounds" />
          </mxGeometry>
        </mxCell>
        <mxCell id="WtPHQBsvvFfomwOvvqpD-16" style="shape=tableRow;horizontal=0;startSize=0;swimlaneHead=0;swimlaneBody=0;fillColor=none;collapsible=0;dropTarget=0;points=[[0,0.5],[1,0.5]];portConstraint=eastwest;top=0;left=0;right=0;bottom=0;" vertex="1" parent="WtPHQBsvvFfomwOvvqpD-3">
          <mxGeometry y="180" width="180" height="30" as="geometry" />
        </mxCell>
        <mxCell id="WtPHQBsvvFfomwOvvqpD-17" style="shape=partialRectangle;connectable=0;fillColor=none;top=0;left=0;bottom=0;right=0;editable=1;overflow=hidden;whiteSpace=wrap;html=1;" vertex="1" parent="WtPHQBsvvFfomwOvvqpD-16">
          <mxGeometry width="30" height="30" as="geometry">
            <mxRectangle width="30" height="30" as="alternateBounds" />
          </mxGeometry>
        </mxCell>
        <mxCell id="WtPHQBsvvFfomwOvvqpD-18" value="Reviewer_Score" style="shape=partialRectangle;connectable=0;fillColor=none;top=0;left=0;bottom=0;right=0;align=left;spacingLeft=6;overflow=hidden;whiteSpace=wrap;html=1;" vertex="1" parent="WtPHQBsvvFfomwOvvqpD-16">
          <mxGeometry x="30" width="150" height="30" as="geometry">
            <mxRectangle width="150" height="30" as="alternateBounds" />
          </mxGeometry>
        </mxCell>
        <mxCell id="WtPHQBsvvFfomwOvvqpD-171" style="shape=tableRow;horizontal=0;startSize=0;swimlaneHead=0;swimlaneBody=0;fillColor=none;collapsible=0;dropTarget=0;points=[[0,0.5],[1,0.5]];portConstraint=eastwest;top=0;left=0;right=0;bottom=0;" vertex="1" parent="WtPHQBsvvFfomwOvvqpD-3">
          <mxGeometry y="210" width="180" height="30" as="geometry" />
        </mxCell>
        <mxCell id="WtPHQBsvvFfomwOvvqpD-172" style="shape=partialRectangle;connectable=0;fillColor=none;top=0;left=0;bottom=0;right=0;editable=1;overflow=hidden;whiteSpace=wrap;html=1;" vertex="1" parent="WtPHQBsvvFfomwOvvqpD-171">
          <mxGeometry width="30" height="30" as="geometry">
            <mxRectangle width="30" height="30" as="alternateBounds" />
          </mxGeometry>
        </mxCell>
        <mxCell id="WtPHQBsvvFfomwOvvqpD-173" value="E_mail" style="shape=partialRectangle;connectable=0;fillColor=none;top=0;left=0;bottom=0;right=0;align=left;spacingLeft=6;overflow=hidden;whiteSpace=wrap;html=1;" vertex="1" parent="WtPHQBsvvFfomwOvvqpD-171">
          <mxGeometry x="30" width="150" height="30" as="geometry">
            <mxRectangle width="150" height="30" as="alternateBounds" />
          </mxGeometry>
        </mxCell>
        <mxCell id="WtPHQBsvvFfomwOvvqpD-174" style="shape=tableRow;horizontal=0;startSize=0;swimlaneHead=0;swimlaneBody=0;fillColor=none;collapsible=0;dropTarget=0;points=[[0,0.5],[1,0.5]];portConstraint=eastwest;top=0;left=0;right=0;bottom=0;" vertex="1" parent="WtPHQBsvvFfomwOvvqpD-3">
          <mxGeometry y="240" width="180" height="30" as="geometry" />
        </mxCell>
        <mxCell id="WtPHQBsvvFfomwOvvqpD-175" style="shape=partialRectangle;connectable=0;fillColor=none;top=0;left=0;bottom=0;right=0;editable=1;overflow=hidden;whiteSpace=wrap;html=1;" vertex="1" parent="WtPHQBsvvFfomwOvvqpD-174">
          <mxGeometry width="30" height="30" as="geometry">
            <mxRectangle width="30" height="30" as="alternateBounds" />
          </mxGeometry>
        </mxCell>
        <mxCell id="WtPHQBsvvFfomwOvvqpD-176" value="Password_Hash" style="shape=partialRectangle;connectable=0;fillColor=none;top=0;left=0;bottom=0;right=0;align=left;spacingLeft=6;overflow=hidden;whiteSpace=wrap;html=1;" vertex="1" parent="WtPHQBsvvFfomwOvvqpD-174">
          <mxGeometry x="30" width="150" height="30" as="geometry">
            <mxRectangle width="150" height="30" as="alternateBounds" />
          </mxGeometry>
        </mxCell>
        <mxCell id="WtPHQBsvvFfomwOvvqpD-177" style="shape=tableRow;horizontal=0;startSize=0;swimlaneHead=0;swimlaneBody=0;fillColor=none;collapsible=0;dropTarget=0;points=[[0,0.5],[1,0.5]];portConstraint=eastwest;top=0;left=0;right=0;bottom=0;" vertex="1" parent="WtPHQBsvvFfomwOvvqpD-3">
          <mxGeometry y="270" width="180" height="30" as="geometry" />
        </mxCell>
        <mxCell id="WtPHQBsvvFfomwOvvqpD-178" style="shape=partialRectangle;connectable=0;fillColor=none;top=0;left=0;bottom=0;right=0;editable=1;overflow=hidden;whiteSpace=wrap;html=1;" vertex="1" parent="WtPHQBsvvFfomwOvvqpD-177">
          <mxGeometry width="30" height="30" as="geometry">
            <mxRectangle width="30" height="30" as="alternateBounds" />
          </mxGeometry>
        </mxCell>
        <mxCell id="WtPHQBsvvFfomwOvvqpD-179" value="Salt" style="shape=partialRectangle;connectable=0;fillColor=none;top=0;left=0;bottom=0;right=0;align=left;spacingLeft=6;overflow=hidden;whiteSpace=wrap;html=1;" vertex="1" parent="WtPHQBsvvFfomwOvvqpD-177">
          <mxGeometry x="30" width="150" height="30" as="geometry">
            <mxRectangle width="150" height="30" as="alternateBounds" />
          </mxGeometry>
        </mxCell>
        <mxCell id="WtPHQBsvvFfomwOvvqpD-19" value="Movie" style="shape=table;startSize=30;container=1;collapsible=1;childLayout=tableLayout;fixedRows=1;rowLines=0;fontStyle=1;align=center;resizeLast=1;html=1;" vertex="1" parent="1">
          <mxGeometry x="660" y="-320" width="180" height="300" as="geometry" />
        </mxCell>
        <mxCell id="WtPHQBsvvFfomwOvvqpD-20" value="" style="shape=tableRow;horizontal=0;startSize=0;swimlaneHead=0;swimlaneBody=0;fillColor=none;collapsible=0;dropTarget=0;points=[[0,0.5],[1,0.5]];portConstraint=eastwest;top=0;left=0;right=0;bottom=1;" vertex="1" parent="WtPHQBsvvFfomwOvvqpD-19">
          <mxGeometry y="30" width="180" height="30" as="geometry" />
        </mxCell>
        <mxCell id="WtPHQBsvvFfomwOvvqpD-21" value="PK" style="shape=partialRectangle;connectable=0;fillColor=none;top=0;left=0;bottom=0;right=0;fontStyle=1;overflow=hidden;whiteSpace=wrap;html=1;" vertex="1" parent="WtPHQBsvvFfomwOvvqpD-20">
          <mxGeometry width="30" height="30" as="geometry">
            <mxRectangle width="30" height="30" as="alternateBounds" />
          </mxGeometry>
        </mxCell>
        <mxCell id="WtPHQBsvvFfomwOvvqpD-22" value="Movie_ID" style="shape=partialRectangle;connectable=0;fillColor=none;top=0;left=0;bottom=0;right=0;align=left;spacingLeft=6;fontStyle=5;overflow=hidden;whiteSpace=wrap;html=1;" vertex="1" parent="WtPHQBsvvFfomwOvvqpD-20">
          <mxGeometry x="30" width="150" height="30" as="geometry">
            <mxRectangle width="150" height="30" as="alternateBounds" />
          </mxGeometry>
        </mxCell>
        <mxCell id="WtPHQBsvvFfomwOvvqpD-23" value="" style="shape=tableRow;horizontal=0;startSize=0;swimlaneHead=0;swimlaneBody=0;fillColor=none;collapsible=0;dropTarget=0;points=[[0,0.5],[1,0.5]];portConstraint=eastwest;top=0;left=0;right=0;bottom=0;" vertex="1" parent="WtPHQBsvvFfomwOvvqpD-19">
          <mxGeometry y="60" width="180" height="30" as="geometry" />
        </mxCell>
        <mxCell id="WtPHQBsvvFfomwOvvqpD-24" value="" style="shape=partialRectangle;connectable=0;fillColor=none;top=0;left=0;bottom=0;right=0;editable=1;overflow=hidden;whiteSpace=wrap;html=1;" vertex="1" parent="WtPHQBsvvFfomwOvvqpD-23">
          <mxGeometry width="30" height="30" as="geometry">
            <mxRectangle width="30" height="30" as="alternateBounds" />
          </mxGeometry>
        </mxCell>
        <mxCell id="WtPHQBsvvFfomwOvvqpD-25" value="Movie_Title" style="shape=partialRectangle;connectable=0;fillColor=none;top=0;left=0;bottom=0;right=0;align=left;spacingLeft=6;overflow=hidden;whiteSpace=wrap;html=1;" vertex="1" parent="WtPHQBsvvFfomwOvvqpD-23">
          <mxGeometry x="30" width="150" height="30" as="geometry">
            <mxRectangle width="150" height="30" as="alternateBounds" />
          </mxGeometry>
        </mxCell>
        <mxCell id="WtPHQBsvvFfomwOvvqpD-26" value="" style="shape=tableRow;horizontal=0;startSize=0;swimlaneHead=0;swimlaneBody=0;fillColor=none;collapsible=0;dropTarget=0;points=[[0,0.5],[1,0.5]];portConstraint=eastwest;top=0;left=0;right=0;bottom=0;" vertex="1" parent="WtPHQBsvvFfomwOvvqpD-19">
          <mxGeometry y="90" width="180" height="30" as="geometry" />
        </mxCell>
        <mxCell id="WtPHQBsvvFfomwOvvqpD-27" value="" style="shape=partialRectangle;connectable=0;fillColor=none;top=0;left=0;bottom=0;right=0;editable=1;overflow=hidden;whiteSpace=wrap;html=1;" vertex="1" parent="WtPHQBsvvFfomwOvvqpD-26">
          <mxGeometry width="30" height="30" as="geometry">
            <mxRectangle width="30" height="30" as="alternateBounds" />
          </mxGeometry>
        </mxCell>
        <mxCell id="WtPHQBsvvFfomwOvvqpD-28" value="Duration" style="shape=partialRectangle;connectable=0;fillColor=none;top=0;left=0;bottom=0;right=0;align=left;spacingLeft=6;overflow=hidden;whiteSpace=wrap;html=1;" vertex="1" parent="WtPHQBsvvFfomwOvvqpD-26">
          <mxGeometry x="30" width="150" height="30" as="geometry">
            <mxRectangle width="150" height="30" as="alternateBounds" />
          </mxGeometry>
        </mxCell>
        <mxCell id="WtPHQBsvvFfomwOvvqpD-29" value="" style="shape=tableRow;horizontal=0;startSize=0;swimlaneHead=0;swimlaneBody=0;fillColor=none;collapsible=0;dropTarget=0;points=[[0,0.5],[1,0.5]];portConstraint=eastwest;top=0;left=0;right=0;bottom=0;" vertex="1" parent="WtPHQBsvvFfomwOvvqpD-19">
          <mxGeometry y="120" width="180" height="30" as="geometry" />
        </mxCell>
        <mxCell id="WtPHQBsvvFfomwOvvqpD-30" value="" style="shape=partialRectangle;connectable=0;fillColor=none;top=0;left=0;bottom=0;right=0;editable=1;overflow=hidden;whiteSpace=wrap;html=1;" vertex="1" parent="WtPHQBsvvFfomwOvvqpD-29">
          <mxGeometry width="30" height="30" as="geometry">
            <mxRectangle width="30" height="30" as="alternateBounds" />
          </mxGeometry>
        </mxCell>
        <mxCell id="WtPHQBsvvFfomwOvvqpD-31" value="Genre" style="shape=partialRectangle;connectable=0;fillColor=none;top=0;left=0;bottom=0;right=0;align=left;spacingLeft=6;overflow=hidden;whiteSpace=wrap;html=1;" vertex="1" parent="WtPHQBsvvFfomwOvvqpD-29">
          <mxGeometry x="30" width="150" height="30" as="geometry">
            <mxRectangle width="150" height="30" as="alternateBounds" />
          </mxGeometry>
        </mxCell>
        <mxCell id="WtPHQBsvvFfomwOvvqpD-32" style="shape=tableRow;horizontal=0;startSize=0;swimlaneHead=0;swimlaneBody=0;fillColor=none;collapsible=0;dropTarget=0;points=[[0,0.5],[1,0.5]];portConstraint=eastwest;top=0;left=0;right=0;bottom=0;" vertex="1" parent="WtPHQBsvvFfomwOvvqpD-19">
          <mxGeometry y="150" width="180" height="30" as="geometry" />
        </mxCell>
        <mxCell id="WtPHQBsvvFfomwOvvqpD-33" style="shape=partialRectangle;connectable=0;fillColor=none;top=0;left=0;bottom=0;right=0;editable=1;overflow=hidden;whiteSpace=wrap;html=1;" vertex="1" parent="WtPHQBsvvFfomwOvvqpD-32">
          <mxGeometry width="30" height="30" as="geometry">
            <mxRectangle width="30" height="30" as="alternateBounds" />
          </mxGeometry>
        </mxCell>
        <mxCell id="WtPHQBsvvFfomwOvvqpD-34" value="Age_Limit" style="shape=partialRectangle;connectable=0;fillColor=none;top=0;left=0;bottom=0;right=0;align=left;spacingLeft=6;overflow=hidden;whiteSpace=wrap;html=1;" vertex="1" parent="WtPHQBsvvFfomwOvvqpD-32">
          <mxGeometry x="30" width="150" height="30" as="geometry">
            <mxRectangle width="150" height="30" as="alternateBounds" />
          </mxGeometry>
        </mxCell>
        <mxCell id="WtPHQBsvvFfomwOvvqpD-35" style="shape=tableRow;horizontal=0;startSize=0;swimlaneHead=0;swimlaneBody=0;fillColor=none;collapsible=0;dropTarget=0;points=[[0,0.5],[1,0.5]];portConstraint=eastwest;top=0;left=0;right=0;bottom=0;" vertex="1" parent="WtPHQBsvvFfomwOvvqpD-19">
          <mxGeometry y="180" width="180" height="30" as="geometry" />
        </mxCell>
        <mxCell id="WtPHQBsvvFfomwOvvqpD-36" style="shape=partialRectangle;connectable=0;fillColor=none;top=0;left=0;bottom=0;right=0;editable=1;overflow=hidden;whiteSpace=wrap;html=1;" vertex="1" parent="WtPHQBsvvFfomwOvvqpD-35">
          <mxGeometry width="30" height="30" as="geometry">
            <mxRectangle width="30" height="30" as="alternateBounds" />
          </mxGeometry>
        </mxCell>
        <mxCell id="WtPHQBsvvFfomwOvvqpD-37" value="Release_Date" style="shape=partialRectangle;connectable=0;fillColor=none;top=0;left=0;bottom=0;right=0;align=left;spacingLeft=6;overflow=hidden;whiteSpace=wrap;html=1;" vertex="1" parent="WtPHQBsvvFfomwOvvqpD-35">
          <mxGeometry x="30" width="150" height="30" as="geometry">
            <mxRectangle width="150" height="30" as="alternateBounds" />
          </mxGeometry>
        </mxCell>
        <mxCell id="WtPHQBsvvFfomwOvvqpD-162" style="shape=tableRow;horizontal=0;startSize=0;swimlaneHead=0;swimlaneBody=0;fillColor=none;collapsible=0;dropTarget=0;points=[[0,0.5],[1,0.5]];portConstraint=eastwest;top=0;left=0;right=0;bottom=0;" vertex="1" parent="WtPHQBsvvFfomwOvvqpD-19">
          <mxGeometry y="210" width="180" height="30" as="geometry" />
        </mxCell>
        <mxCell id="WtPHQBsvvFfomwOvvqpD-163" style="shape=partialRectangle;connectable=0;fillColor=none;top=0;left=0;bottom=0;right=0;editable=1;overflow=hidden;whiteSpace=wrap;html=1;" vertex="1" parent="WtPHQBsvvFfomwOvvqpD-162">
          <mxGeometry width="30" height="30" as="geometry">
            <mxRectangle width="30" height="30" as="alternateBounds" />
          </mxGeometry>
        </mxCell>
        <mxCell id="WtPHQBsvvFfomwOvvqpD-164" value="Synopsis" style="shape=partialRectangle;connectable=0;fillColor=none;top=0;left=0;bottom=0;right=0;align=left;spacingLeft=6;overflow=hidden;whiteSpace=wrap;html=1;" vertex="1" parent="WtPHQBsvvFfomwOvvqpD-162">
          <mxGeometry x="30" width="150" height="30" as="geometry">
            <mxRectangle width="150" height="30" as="alternateBounds" />
          </mxGeometry>
        </mxCell>
        <mxCell id="WtPHQBsvvFfomwOvvqpD-165" style="shape=tableRow;horizontal=0;startSize=0;swimlaneHead=0;swimlaneBody=0;fillColor=none;collapsible=0;dropTarget=0;points=[[0,0.5],[1,0.5]];portConstraint=eastwest;top=0;left=0;right=0;bottom=0;" vertex="1" parent="WtPHQBsvvFfomwOvvqpD-19">
          <mxGeometry y="240" width="180" height="30" as="geometry" />
        </mxCell>
        <mxCell id="WtPHQBsvvFfomwOvvqpD-166" style="shape=partialRectangle;connectable=0;fillColor=none;top=0;left=0;bottom=0;right=0;editable=1;overflow=hidden;whiteSpace=wrap;html=1;" vertex="1" parent="WtPHQBsvvFfomwOvvqpD-165">
          <mxGeometry width="30" height="30" as="geometry">
            <mxRectangle width="30" height="30" as="alternateBounds" />
          </mxGeometry>
        </mxCell>
        <mxCell id="WtPHQBsvvFfomwOvvqpD-167" value="Country_Of_Origin" style="shape=partialRectangle;connectable=0;fillColor=none;top=0;left=0;bottom=0;right=0;align=left;spacingLeft=6;overflow=hidden;whiteSpace=wrap;html=1;" vertex="1" parent="WtPHQBsvvFfomwOvvqpD-165">
          <mxGeometry x="30" width="150" height="30" as="geometry">
            <mxRectangle width="150" height="30" as="alternateBounds" />
          </mxGeometry>
        </mxCell>
        <mxCell id="WtPHQBsvvFfomwOvvqpD-168" style="shape=tableRow;horizontal=0;startSize=0;swimlaneHead=0;swimlaneBody=0;fillColor=none;collapsible=0;dropTarget=0;points=[[0,0.5],[1,0.5]];portConstraint=eastwest;top=0;left=0;right=0;bottom=0;" vertex="1" parent="WtPHQBsvvFfomwOvvqpD-19">
          <mxGeometry y="270" width="180" height="30" as="geometry" />
        </mxCell>
        <mxCell id="WtPHQBsvvFfomwOvvqpD-169" style="shape=partialRectangle;connectable=0;fillColor=none;top=0;left=0;bottom=0;right=0;editable=1;overflow=hidden;whiteSpace=wrap;html=1;" vertex="1" parent="WtPHQBsvvFfomwOvvqpD-168">
          <mxGeometry width="30" height="30" as="geometry">
            <mxRectangle width="30" height="30" as="alternateBounds" />
          </mxGeometry>
        </mxCell>
        <mxCell id="WtPHQBsvvFfomwOvvqpD-170" value="Language" style="shape=partialRectangle;connectable=0;fillColor=none;top=0;left=0;bottom=0;right=0;align=left;spacingLeft=6;overflow=hidden;whiteSpace=wrap;html=1;" vertex="1" parent="WtPHQBsvvFfomwOvvqpD-168">
          <mxGeometry x="30" width="150" height="30" as="geometry">
            <mxRectangle width="150" height="30" as="alternateBounds" />
          </mxGeometry>
        </mxCell>
        <mxCell id="WtPHQBsvvFfomwOvvqpD-38" value="Actor" style="shape=table;startSize=30;container=1;collapsible=1;childLayout=tableLayout;fixedRows=1;rowLines=0;fontStyle=1;align=center;resizeLast=1;html=1;" vertex="1" parent="1">
          <mxGeometry x="320" y="-610" width="180" height="180" as="geometry" />
        </mxCell>
        <mxCell id="WtPHQBsvvFfomwOvvqpD-39" value="" style="shape=tableRow;horizontal=0;startSize=0;swimlaneHead=0;swimlaneBody=0;fillColor=none;collapsible=0;dropTarget=0;points=[[0,0.5],[1,0.5]];portConstraint=eastwest;top=0;left=0;right=0;bottom=1;" vertex="1" parent="WtPHQBsvvFfomwOvvqpD-38">
          <mxGeometry y="30" width="180" height="30" as="geometry" />
        </mxCell>
        <mxCell id="WtPHQBsvvFfomwOvvqpD-40" value="PK" style="shape=partialRectangle;connectable=0;fillColor=none;top=0;left=0;bottom=0;right=0;fontStyle=1;overflow=hidden;whiteSpace=wrap;html=1;" vertex="1" parent="WtPHQBsvvFfomwOvvqpD-39">
          <mxGeometry width="30" height="30" as="geometry">
            <mxRectangle width="30" height="30" as="alternateBounds" />
          </mxGeometry>
        </mxCell>
        <mxCell id="WtPHQBsvvFfomwOvvqpD-41" value="Actor_ID" style="shape=partialRectangle;connectable=0;fillColor=none;top=0;left=0;bottom=0;right=0;align=left;spacingLeft=6;fontStyle=5;overflow=hidden;whiteSpace=wrap;html=1;" vertex="1" parent="WtPHQBsvvFfomwOvvqpD-39">
          <mxGeometry x="30" width="150" height="30" as="geometry">
            <mxRectangle width="150" height="30" as="alternateBounds" />
          </mxGeometry>
        </mxCell>
        <mxCell id="WtPHQBsvvFfomwOvvqpD-42" value="" style="shape=tableRow;horizontal=0;startSize=0;swimlaneHead=0;swimlaneBody=0;fillColor=none;collapsible=0;dropTarget=0;points=[[0,0.5],[1,0.5]];portConstraint=eastwest;top=0;left=0;right=0;bottom=0;" vertex="1" parent="WtPHQBsvvFfomwOvvqpD-38">
          <mxGeometry y="60" width="180" height="30" as="geometry" />
        </mxCell>
        <mxCell id="WtPHQBsvvFfomwOvvqpD-43" value="" style="shape=partialRectangle;connectable=0;fillColor=none;top=0;left=0;bottom=0;right=0;editable=1;overflow=hidden;whiteSpace=wrap;html=1;" vertex="1" parent="WtPHQBsvvFfomwOvvqpD-42">
          <mxGeometry width="30" height="30" as="geometry">
            <mxRectangle width="30" height="30" as="alternateBounds" />
          </mxGeometry>
        </mxCell>
        <mxCell id="WtPHQBsvvFfomwOvvqpD-44" value="Actor_First_Name" style="shape=partialRectangle;connectable=0;fillColor=none;top=0;left=0;bottom=0;right=0;align=left;spacingLeft=6;overflow=hidden;whiteSpace=wrap;html=1;" vertex="1" parent="WtPHQBsvvFfomwOvvqpD-42">
          <mxGeometry x="30" width="150" height="30" as="geometry">
            <mxRectangle width="150" height="30" as="alternateBounds" />
          </mxGeometry>
        </mxCell>
        <mxCell id="WtPHQBsvvFfomwOvvqpD-45" value="" style="shape=tableRow;horizontal=0;startSize=0;swimlaneHead=0;swimlaneBody=0;fillColor=none;collapsible=0;dropTarget=0;points=[[0,0.5],[1,0.5]];portConstraint=eastwest;top=0;left=0;right=0;bottom=0;" vertex="1" parent="WtPHQBsvvFfomwOvvqpD-38">
          <mxGeometry y="90" width="180" height="30" as="geometry" />
        </mxCell>
        <mxCell id="WtPHQBsvvFfomwOvvqpD-46" value="" style="shape=partialRectangle;connectable=0;fillColor=none;top=0;left=0;bottom=0;right=0;editable=1;overflow=hidden;whiteSpace=wrap;html=1;" vertex="1" parent="WtPHQBsvvFfomwOvvqpD-45">
          <mxGeometry width="30" height="30" as="geometry">
            <mxRectangle width="30" height="30" as="alternateBounds" />
          </mxGeometry>
        </mxCell>
        <mxCell id="WtPHQBsvvFfomwOvvqpD-47" value="Actor_Last_Name" style="shape=partialRectangle;connectable=0;fillColor=none;top=0;left=0;bottom=0;right=0;align=left;spacingLeft=6;overflow=hidden;whiteSpace=wrap;html=1;" vertex="1" parent="WtPHQBsvvFfomwOvvqpD-45">
          <mxGeometry x="30" width="150" height="30" as="geometry">
            <mxRectangle width="150" height="30" as="alternateBounds" />
          </mxGeometry>
        </mxCell>
        <mxCell id="WtPHQBsvvFfomwOvvqpD-48" value="" style="shape=tableRow;horizontal=0;startSize=0;swimlaneHead=0;swimlaneBody=0;fillColor=none;collapsible=0;dropTarget=0;points=[[0,0.5],[1,0.5]];portConstraint=eastwest;top=0;left=0;right=0;bottom=0;" vertex="1" parent="WtPHQBsvvFfomwOvvqpD-38">
          <mxGeometry y="120" width="180" height="30" as="geometry" />
        </mxCell>
        <mxCell id="WtPHQBsvvFfomwOvvqpD-49" value="" style="shape=partialRectangle;connectable=0;fillColor=none;top=0;left=0;bottom=0;right=0;editable=1;overflow=hidden;whiteSpace=wrap;html=1;" vertex="1" parent="WtPHQBsvvFfomwOvvqpD-48">
          <mxGeometry width="30" height="30" as="geometry">
            <mxRectangle width="30" height="30" as="alternateBounds" />
          </mxGeometry>
        </mxCell>
        <mxCell id="WtPHQBsvvFfomwOvvqpD-50" value="&lt;div&gt;Date_Of_Birth&lt;/div&gt;" style="shape=partialRectangle;connectable=0;fillColor=none;top=0;left=0;bottom=0;right=0;align=left;spacingLeft=6;overflow=hidden;whiteSpace=wrap;html=1;" vertex="1" parent="WtPHQBsvvFfomwOvvqpD-48">
          <mxGeometry x="30" width="150" height="30" as="geometry">
            <mxRectangle width="150" height="30" as="alternateBounds" />
          </mxGeometry>
        </mxCell>
        <mxCell id="WtPHQBsvvFfomwOvvqpD-51" style="shape=tableRow;horizontal=0;startSize=0;swimlaneHead=0;swimlaneBody=0;fillColor=none;collapsible=0;dropTarget=0;points=[[0,0.5],[1,0.5]];portConstraint=eastwest;top=0;left=0;right=0;bottom=0;" vertex="1" parent="WtPHQBsvvFfomwOvvqpD-38">
          <mxGeometry y="150" width="180" height="30" as="geometry" />
        </mxCell>
        <mxCell id="WtPHQBsvvFfomwOvvqpD-52" style="shape=partialRectangle;connectable=0;fillColor=none;top=0;left=0;bottom=0;right=0;editable=1;overflow=hidden;whiteSpace=wrap;html=1;" vertex="1" parent="WtPHQBsvvFfomwOvvqpD-51">
          <mxGeometry width="30" height="30" as="geometry">
            <mxRectangle width="30" height="30" as="alternateBounds" />
          </mxGeometry>
        </mxCell>
        <mxCell id="WtPHQBsvvFfomwOvvqpD-53" value="Height" style="shape=partialRectangle;connectable=0;fillColor=none;top=0;left=0;bottom=0;right=0;align=left;spacingLeft=6;overflow=hidden;whiteSpace=wrap;html=1;" vertex="1" parent="WtPHQBsvvFfomwOvvqpD-51">
          <mxGeometry x="30" width="150" height="30" as="geometry">
            <mxRectangle width="150" height="30" as="alternateBounds" />
          </mxGeometry>
        </mxCell>
        <mxCell id="WtPHQBsvvFfomwOvvqpD-54" value="Director" style="shape=table;startSize=30;container=1;collapsible=1;childLayout=tableLayout;fixedRows=1;rowLines=0;fontStyle=1;align=center;resizeLast=1;html=1;" vertex="1" parent="1">
          <mxGeometry x="660" y="180" width="180" height="180" as="geometry" />
        </mxCell>
        <mxCell id="WtPHQBsvvFfomwOvvqpD-55" value="" style="shape=tableRow;horizontal=0;startSize=0;swimlaneHead=0;swimlaneBody=0;fillColor=none;collapsible=0;dropTarget=0;points=[[0,0.5],[1,0.5]];portConstraint=eastwest;top=0;left=0;right=0;bottom=1;" vertex="1" parent="WtPHQBsvvFfomwOvvqpD-54">
          <mxGeometry y="30" width="180" height="30" as="geometry" />
        </mxCell>
        <mxCell id="WtPHQBsvvFfomwOvvqpD-56" value="PK" style="shape=partialRectangle;connectable=0;fillColor=none;top=0;left=0;bottom=0;right=0;fontStyle=1;overflow=hidden;whiteSpace=wrap;html=1;" vertex="1" parent="WtPHQBsvvFfomwOvvqpD-55">
          <mxGeometry width="30" height="30" as="geometry">
            <mxRectangle width="30" height="30" as="alternateBounds" />
          </mxGeometry>
        </mxCell>
        <mxCell id="WtPHQBsvvFfomwOvvqpD-57" value="Director_ID" style="shape=partialRectangle;connectable=0;fillColor=none;top=0;left=0;bottom=0;right=0;align=left;spacingLeft=6;fontStyle=5;overflow=hidden;whiteSpace=wrap;html=1;" vertex="1" parent="WtPHQBsvvFfomwOvvqpD-55">
          <mxGeometry x="30" width="150" height="30" as="geometry">
            <mxRectangle width="150" height="30" as="alternateBounds" />
          </mxGeometry>
        </mxCell>
        <mxCell id="WtPHQBsvvFfomwOvvqpD-58" value="" style="shape=tableRow;horizontal=0;startSize=0;swimlaneHead=0;swimlaneBody=0;fillColor=none;collapsible=0;dropTarget=0;points=[[0,0.5],[1,0.5]];portConstraint=eastwest;top=0;left=0;right=0;bottom=0;" vertex="1" parent="WtPHQBsvvFfomwOvvqpD-54">
          <mxGeometry y="60" width="180" height="30" as="geometry" />
        </mxCell>
        <mxCell id="WtPHQBsvvFfomwOvvqpD-59" value="" style="shape=partialRectangle;connectable=0;fillColor=none;top=0;left=0;bottom=0;right=0;editable=1;overflow=hidden;whiteSpace=wrap;html=1;" vertex="1" parent="WtPHQBsvvFfomwOvvqpD-58">
          <mxGeometry width="30" height="30" as="geometry">
            <mxRectangle width="30" height="30" as="alternateBounds" />
          </mxGeometry>
        </mxCell>
        <mxCell id="WtPHQBsvvFfomwOvvqpD-60" value="Director_First_Name" style="shape=partialRectangle;connectable=0;fillColor=none;top=0;left=0;bottom=0;right=0;align=left;spacingLeft=6;overflow=hidden;whiteSpace=wrap;html=1;" vertex="1" parent="WtPHQBsvvFfomwOvvqpD-58">
          <mxGeometry x="30" width="150" height="30" as="geometry">
            <mxRectangle width="150" height="30" as="alternateBounds" />
          </mxGeometry>
        </mxCell>
        <mxCell id="WtPHQBsvvFfomwOvvqpD-61" value="" style="shape=tableRow;horizontal=0;startSize=0;swimlaneHead=0;swimlaneBody=0;fillColor=none;collapsible=0;dropTarget=0;points=[[0,0.5],[1,0.5]];portConstraint=eastwest;top=0;left=0;right=0;bottom=0;" vertex="1" parent="WtPHQBsvvFfomwOvvqpD-54">
          <mxGeometry y="90" width="180" height="30" as="geometry" />
        </mxCell>
        <mxCell id="WtPHQBsvvFfomwOvvqpD-62" value="" style="shape=partialRectangle;connectable=0;fillColor=none;top=0;left=0;bottom=0;right=0;editable=1;overflow=hidden;whiteSpace=wrap;html=1;" vertex="1" parent="WtPHQBsvvFfomwOvvqpD-61">
          <mxGeometry width="30" height="30" as="geometry">
            <mxRectangle width="30" height="30" as="alternateBounds" />
          </mxGeometry>
        </mxCell>
        <mxCell id="WtPHQBsvvFfomwOvvqpD-63" value="Director_Last_Name" style="shape=partialRectangle;connectable=0;fillColor=none;top=0;left=0;bottom=0;right=0;align=left;spacingLeft=6;overflow=hidden;whiteSpace=wrap;html=1;" vertex="1" parent="WtPHQBsvvFfomwOvvqpD-61">
          <mxGeometry x="30" width="150" height="30" as="geometry">
            <mxRectangle width="150" height="30" as="alternateBounds" />
          </mxGeometry>
        </mxCell>
        <mxCell id="WtPHQBsvvFfomwOvvqpD-64" value="" style="shape=tableRow;horizontal=0;startSize=0;swimlaneHead=0;swimlaneBody=0;fillColor=none;collapsible=0;dropTarget=0;points=[[0,0.5],[1,0.5]];portConstraint=eastwest;top=0;left=0;right=0;bottom=0;" vertex="1" parent="WtPHQBsvvFfomwOvvqpD-54">
          <mxGeometry y="120" width="180" height="30" as="geometry" />
        </mxCell>
        <mxCell id="WtPHQBsvvFfomwOvvqpD-65" value="" style="shape=partialRectangle;connectable=0;fillColor=none;top=0;left=0;bottom=0;right=0;editable=1;overflow=hidden;whiteSpace=wrap;html=1;" vertex="1" parent="WtPHQBsvvFfomwOvvqpD-64">
          <mxGeometry width="30" height="30" as="geometry">
            <mxRectangle width="30" height="30" as="alternateBounds" />
          </mxGeometry>
        </mxCell>
        <mxCell id="WtPHQBsvvFfomwOvvqpD-66" value="Date_Of_Birth" style="shape=partialRectangle;connectable=0;fillColor=none;top=0;left=0;bottom=0;right=0;align=left;spacingLeft=6;overflow=hidden;whiteSpace=wrap;html=1;" vertex="1" parent="WtPHQBsvvFfomwOvvqpD-64">
          <mxGeometry x="30" width="150" height="30" as="geometry">
            <mxRectangle width="150" height="30" as="alternateBounds" />
          </mxGeometry>
        </mxCell>
        <mxCell id="WtPHQBsvvFfomwOvvqpD-80" style="shape=tableRow;horizontal=0;startSize=0;swimlaneHead=0;swimlaneBody=0;fillColor=none;collapsible=0;dropTarget=0;points=[[0,0.5],[1,0.5]];portConstraint=eastwest;top=0;left=0;right=0;bottom=0;" vertex="1" parent="WtPHQBsvvFfomwOvvqpD-54">
          <mxGeometry y="150" width="180" height="30" as="geometry" />
        </mxCell>
        <mxCell id="WtPHQBsvvFfomwOvvqpD-81" style="shape=partialRectangle;connectable=0;fillColor=none;top=0;left=0;bottom=0;right=0;editable=1;overflow=hidden;whiteSpace=wrap;html=1;" vertex="1" parent="WtPHQBsvvFfomwOvvqpD-80">
          <mxGeometry width="30" height="30" as="geometry">
            <mxRectangle width="30" height="30" as="alternateBounds" />
          </mxGeometry>
        </mxCell>
        <mxCell id="WtPHQBsvvFfomwOvvqpD-82" value="Height" style="shape=partialRectangle;connectable=0;fillColor=none;top=0;left=0;bottom=0;right=0;align=left;spacingLeft=6;overflow=hidden;whiteSpace=wrap;html=1;" vertex="1" parent="WtPHQBsvvFfomwOvvqpD-80">
          <mxGeometry x="30" width="150" height="30" as="geometry">
            <mxRectangle width="150" height="30" as="alternateBounds" />
          </mxGeometry>
        </mxCell>
        <mxCell id="WtPHQBsvvFfomwOvvqpD-67" value="Review" style="shape=table;startSize=30;container=1;collapsible=1;childLayout=tableLayout;fixedRows=1;rowLines=0;fontStyle=1;align=center;resizeLast=1;html=1;" vertex="1" parent="1">
          <mxGeometry x="180" y="-270" width="180" height="180.00000000000045" as="geometry" />
        </mxCell>
        <mxCell id="WtPHQBsvvFfomwOvvqpD-68" value="" style="shape=tableRow;horizontal=0;startSize=0;swimlaneHead=0;swimlaneBody=0;fillColor=none;collapsible=0;dropTarget=0;points=[[0,0.5],[1,0.5]];portConstraint=eastwest;top=0;left=0;right=0;bottom=1;" vertex="1" parent="WtPHQBsvvFfomwOvvqpD-67">
          <mxGeometry y="30" width="180" height="30" as="geometry" />
        </mxCell>
        <mxCell id="WtPHQBsvvFfomwOvvqpD-69" value="PK" style="shape=partialRectangle;connectable=0;fillColor=none;top=0;left=0;bottom=0;right=0;fontStyle=1;overflow=hidden;whiteSpace=wrap;html=1;" vertex="1" parent="WtPHQBsvvFfomwOvvqpD-68">
          <mxGeometry width="30" height="30" as="geometry">
            <mxRectangle width="30" height="30" as="alternateBounds" />
          </mxGeometry>
        </mxCell>
        <mxCell id="WtPHQBsvvFfomwOvvqpD-70" value="Review_ID" style="shape=partialRectangle;connectable=0;fillColor=none;top=0;left=0;bottom=0;right=0;align=left;spacingLeft=6;fontStyle=5;overflow=hidden;whiteSpace=wrap;html=1;" vertex="1" parent="WtPHQBsvvFfomwOvvqpD-68">
          <mxGeometry x="30" width="150" height="30" as="geometry">
            <mxRectangle width="150" height="30" as="alternateBounds" />
          </mxGeometry>
        </mxCell>
        <mxCell id="WtPHQBsvvFfomwOvvqpD-71" value="" style="shape=tableRow;horizontal=0;startSize=0;swimlaneHead=0;swimlaneBody=0;fillColor=none;collapsible=0;dropTarget=0;points=[[0,0.5],[1,0.5]];portConstraint=eastwest;top=0;left=0;right=0;bottom=0;" vertex="1" parent="WtPHQBsvvFfomwOvvqpD-67">
          <mxGeometry y="60" width="180" height="30" as="geometry" />
        </mxCell>
        <mxCell id="WtPHQBsvvFfomwOvvqpD-72" value="" style="shape=partialRectangle;connectable=0;fillColor=none;top=0;left=0;bottom=0;right=0;editable=1;overflow=hidden;whiteSpace=wrap;html=1;" vertex="1" parent="WtPHQBsvvFfomwOvvqpD-71">
          <mxGeometry width="30" height="30" as="geometry">
            <mxRectangle width="30" height="30" as="alternateBounds" />
          </mxGeometry>
        </mxCell>
        <mxCell id="WtPHQBsvvFfomwOvvqpD-73" value="Likes" style="shape=partialRectangle;connectable=0;fillColor=none;top=0;left=0;bottom=0;right=0;align=left;spacingLeft=6;overflow=hidden;whiteSpace=wrap;html=1;" vertex="1" parent="WtPHQBsvvFfomwOvvqpD-71">
          <mxGeometry x="30" width="150" height="30" as="geometry">
            <mxRectangle width="150" height="30" as="alternateBounds" />
          </mxGeometry>
        </mxCell>
        <mxCell id="WtPHQBsvvFfomwOvvqpD-159" style="shape=tableRow;horizontal=0;startSize=0;swimlaneHead=0;swimlaneBody=0;fillColor=none;collapsible=0;dropTarget=0;points=[[0,0.5],[1,0.5]];portConstraint=eastwest;top=0;left=0;right=0;bottom=0;" vertex="1" parent="WtPHQBsvvFfomwOvvqpD-67">
          <mxGeometry y="90" width="180" height="30" as="geometry" />
        </mxCell>
        <mxCell id="WtPHQBsvvFfomwOvvqpD-160" style="shape=partialRectangle;connectable=0;fillColor=none;top=0;left=0;bottom=0;right=0;editable=1;overflow=hidden;whiteSpace=wrap;html=1;" vertex="1" parent="WtPHQBsvvFfomwOvvqpD-159">
          <mxGeometry width="30" height="30" as="geometry">
            <mxRectangle width="30" height="30" as="alternateBounds" />
          </mxGeometry>
        </mxCell>
        <mxCell id="WtPHQBsvvFfomwOvvqpD-161" value="Dislikes" style="shape=partialRectangle;connectable=0;fillColor=none;top=0;left=0;bottom=0;right=0;align=left;spacingLeft=6;overflow=hidden;whiteSpace=wrap;html=1;" vertex="1" parent="WtPHQBsvvFfomwOvvqpD-159">
          <mxGeometry x="30" width="150" height="30" as="geometry">
            <mxRectangle width="150" height="30" as="alternateBounds" />
          </mxGeometry>
        </mxCell>
        <mxCell id="WtPHQBsvvFfomwOvvqpD-74" value="" style="shape=tableRow;horizontal=0;startSize=0;swimlaneHead=0;swimlaneBody=0;fillColor=none;collapsible=0;dropTarget=0;points=[[0,0.5],[1,0.5]];portConstraint=eastwest;top=0;left=0;right=0;bottom=0;" vertex="1" parent="WtPHQBsvvFfomwOvvqpD-67">
          <mxGeometry y="120" width="180" height="30" as="geometry" />
        </mxCell>
        <mxCell id="WtPHQBsvvFfomwOvvqpD-75" value="" style="shape=partialRectangle;connectable=0;fillColor=none;top=0;left=0;bottom=0;right=0;editable=1;overflow=hidden;whiteSpace=wrap;html=1;" vertex="1" parent="WtPHQBsvvFfomwOvvqpD-74">
          <mxGeometry width="30" height="30" as="geometry">
            <mxRectangle width="30" height="30" as="alternateBounds" />
          </mxGeometry>
        </mxCell>
        <mxCell id="WtPHQBsvvFfomwOvvqpD-76" value="Review_text" style="shape=partialRectangle;connectable=0;fillColor=none;top=0;left=0;bottom=0;right=0;align=left;spacingLeft=6;overflow=hidden;whiteSpace=wrap;html=1;" vertex="1" parent="WtPHQBsvvFfomwOvvqpD-74">
          <mxGeometry x="30" width="150" height="30" as="geometry">
            <mxRectangle width="150" height="30" as="alternateBounds" />
          </mxGeometry>
        </mxCell>
        <mxCell id="WtPHQBsvvFfomwOvvqpD-77" value="" style="shape=tableRow;horizontal=0;startSize=0;swimlaneHead=0;swimlaneBody=0;fillColor=none;collapsible=0;dropTarget=0;points=[[0,0.5],[1,0.5]];portConstraint=eastwest;top=0;left=0;right=0;bottom=0;" vertex="1" parent="WtPHQBsvvFfomwOvvqpD-67">
          <mxGeometry y="150" width="180" height="30" as="geometry" />
        </mxCell>
        <mxCell id="WtPHQBsvvFfomwOvvqpD-78" value="" style="shape=partialRectangle;connectable=0;fillColor=none;top=0;left=0;bottom=0;right=0;editable=1;overflow=hidden;whiteSpace=wrap;html=1;" vertex="1" parent="WtPHQBsvvFfomwOvvqpD-77">
          <mxGeometry width="30" height="30" as="geometry">
            <mxRectangle width="30" height="30" as="alternateBounds" />
          </mxGeometry>
        </mxCell>
        <mxCell id="WtPHQBsvvFfomwOvvqpD-79" value="Review_Date" style="shape=partialRectangle;connectable=0;fillColor=none;top=0;left=0;bottom=0;right=0;align=left;spacingLeft=6;overflow=hidden;whiteSpace=wrap;html=1;" vertex="1" parent="WtPHQBsvvFfomwOvvqpD-77">
          <mxGeometry x="30" width="150" height="30" as="geometry">
            <mxRectangle width="150" height="30" as="alternateBounds" />
          </mxGeometry>
        </mxCell>
        <mxCell id="WtPHQBsvvFfomwOvvqpD-83" value="writes" style="shape=rhombus;perimeter=rhombusPerimeter;whiteSpace=wrap;html=1;align=center;" vertex="1" parent="1">
          <mxGeometry x="-90" y="-140" width="120" height="60" as="geometry" />
        </mxCell>
        <mxCell id="WtPHQBsvvFfomwOvvqpD-84" value="" style="endArrow=none;html=1;rounded=0;exitX=0.5;exitY=0;exitDx=0;exitDy=0;entryX=0.5;entryY=1;entryDx=0;entryDy=0;" edge="1" parent="1" source="WtPHQBsvvFfomwOvvqpD-3" target="WtPHQBsvvFfomwOvvqpD-83">
          <mxGeometry relative="1" as="geometry">
            <mxPoint x="290" y="130" as="sourcePoint" />
            <mxPoint x="450" y="130" as="targetPoint" />
          </mxGeometry>
        </mxCell>
        <mxCell id="WtPHQBsvvFfomwOvvqpD-85" value="&lt;div&gt;0,n&lt;/div&gt;" style="resizable=0;html=1;whiteSpace=wrap;align=left;verticalAlign=bottom;" connectable="0" vertex="1" parent="WtPHQBsvvFfomwOvvqpD-84">
          <mxGeometry x="-1" relative="1" as="geometry">
            <mxPoint x="-20" y="-10" as="offset" />
          </mxGeometry>
        </mxCell>
        <mxCell id="WtPHQBsvvFfomwOvvqpD-87" value="" style="endArrow=none;html=1;rounded=0;exitX=1;exitY=0.5;exitDx=0;exitDy=0;entryX=0;entryY=0.5;entryDx=0;entryDy=0;" edge="1" parent="1" source="WtPHQBsvvFfomwOvvqpD-83" target="WtPHQBsvvFfomwOvvqpD-71">
          <mxGeometry relative="1" as="geometry">
            <mxPoint x="290" y="130" as="sourcePoint" />
            <mxPoint x="450" y="130" as="targetPoint" />
          </mxGeometry>
        </mxCell>
        <mxCell id="WtPHQBsvvFfomwOvvqpD-89" value="1,1" style="resizable=0;html=1;whiteSpace=wrap;align=right;verticalAlign=bottom;" connectable="0" vertex="1" parent="WtPHQBsvvFfomwOvvqpD-87">
          <mxGeometry x="1" relative="1" as="geometry">
            <mxPoint x="-21" as="offset" />
          </mxGeometry>
        </mxCell>
        <mxCell id="WtPHQBsvvFfomwOvvqpD-90" value="is about" style="shape=rhombus;perimeter=rhombusPerimeter;whiteSpace=wrap;html=1;align=center;" vertex="1" parent="1">
          <mxGeometry x="440" y="-240" width="120" height="60" as="geometry" />
        </mxCell>
        <mxCell id="WtPHQBsvvFfomwOvvqpD-91" value="" style="endArrow=none;html=1;rounded=0;exitX=1;exitY=0.5;exitDx=0;exitDy=0;entryX=0;entryY=0.5;entryDx=0;entryDy=0;" edge="1" parent="1" source="WtPHQBsvvFfomwOvvqpD-71" target="WtPHQBsvvFfomwOvvqpD-90">
          <mxGeometry relative="1" as="geometry">
            <mxPoint x="290" y="130" as="sourcePoint" />
            <mxPoint x="450" y="130" as="targetPoint" />
          </mxGeometry>
        </mxCell>
        <mxCell id="WtPHQBsvvFfomwOvvqpD-92" value="1,1" style="resizable=0;html=1;whiteSpace=wrap;align=left;verticalAlign=bottom;" connectable="0" vertex="1" parent="WtPHQBsvvFfomwOvvqpD-91">
          <mxGeometry x="-1" relative="1" as="geometry">
            <mxPoint x="10" as="offset" />
          </mxGeometry>
        </mxCell>
        <mxCell id="WtPHQBsvvFfomwOvvqpD-94" value="" style="endArrow=none;html=1;rounded=0;exitX=1;exitY=0.5;exitDx=0;exitDy=0;entryX=0;entryY=0.5;entryDx=0;entryDy=0;" edge="1" parent="1" source="WtPHQBsvvFfomwOvvqpD-90" target="WtPHQBsvvFfomwOvvqpD-26">
          <mxGeometry relative="1" as="geometry">
            <mxPoint x="290" y="130" as="sourcePoint" />
            <mxPoint x="450" y="130" as="targetPoint" />
          </mxGeometry>
        </mxCell>
        <mxCell id="WtPHQBsvvFfomwOvvqpD-96" value="0,n" style="resizable=0;html=1;whiteSpace=wrap;align=right;verticalAlign=bottom;" connectable="0" vertex="1" parent="WtPHQBsvvFfomwOvvqpD-94">
          <mxGeometry x="1" relative="1" as="geometry">
            <mxPoint x="-10" as="offset" />
          </mxGeometry>
        </mxCell>
        <mxCell id="WtPHQBsvvFfomwOvvqpD-97" value="Directs" style="shape=rhombus;perimeter=rhombusPerimeter;whiteSpace=wrap;html=1;align=center;" vertex="1" parent="1">
          <mxGeometry x="690" y="50" width="120" height="60" as="geometry" />
        </mxCell>
        <mxCell id="WtPHQBsvvFfomwOvvqpD-98" value="" style="endArrow=none;html=1;rounded=0;exitX=0.5;exitY=0;exitDx=0;exitDy=0;entryX=0.5;entryY=1;entryDx=0;entryDy=0;" edge="1" parent="1" source="WtPHQBsvvFfomwOvvqpD-54" target="WtPHQBsvvFfomwOvvqpD-97">
          <mxGeometry relative="1" as="geometry">
            <mxPoint x="290" y="130" as="sourcePoint" />
            <mxPoint x="450" y="130" as="targetPoint" />
          </mxGeometry>
        </mxCell>
        <mxCell id="WtPHQBsvvFfomwOvvqpD-99" value="0,n" style="resizable=0;html=1;whiteSpace=wrap;align=left;verticalAlign=bottom;" connectable="0" vertex="1" parent="WtPHQBsvvFfomwOvvqpD-98">
          <mxGeometry x="-1" relative="1" as="geometry">
            <mxPoint y="-5" as="offset" />
          </mxGeometry>
        </mxCell>
        <mxCell id="WtPHQBsvvFfomwOvvqpD-101" value="" style="endArrow=none;html=1;rounded=0;exitX=0.5;exitY=0;exitDx=0;exitDy=0;entryX=0.5;entryY=1;entryDx=0;entryDy=0;" edge="1" parent="1" source="WtPHQBsvvFfomwOvvqpD-97" target="WtPHQBsvvFfomwOvvqpD-19">
          <mxGeometry relative="1" as="geometry">
            <mxPoint x="290" y="130" as="sourcePoint" />
            <mxPoint x="450" y="130" as="targetPoint" />
          </mxGeometry>
        </mxCell>
        <mxCell id="WtPHQBsvvFfomwOvvqpD-103" value="1,n" style="resizable=0;html=1;whiteSpace=wrap;align=right;verticalAlign=bottom;" connectable="0" vertex="1" parent="WtPHQBsvvFfomwOvvqpD-101">
          <mxGeometry x="1" relative="1" as="geometry">
            <mxPoint y="35" as="offset" />
          </mxGeometry>
        </mxCell>
        <mxCell id="WtPHQBsvvFfomwOvvqpD-104" value="Acts in" style="shape=rhombus;perimeter=rhombusPerimeter;whiteSpace=wrap;html=1;align=center;" vertex="1" parent="1">
          <mxGeometry x="690" y="-475" width="120" height="60" as="geometry" />
        </mxCell>
        <mxCell id="WtPHQBsvvFfomwOvvqpD-105" value="" style="endArrow=none;html=1;rounded=0;exitX=1;exitY=0.5;exitDx=0;exitDy=0;entryX=0;entryY=0.5;entryDx=0;entryDy=0;" edge="1" parent="1" source="WtPHQBsvvFfomwOvvqpD-51" target="WtPHQBsvvFfomwOvvqpD-104">
          <mxGeometry relative="1" as="geometry">
            <mxPoint x="450" y="-260" as="sourcePoint" />
            <mxPoint x="610" y="-260" as="targetPoint" />
          </mxGeometry>
        </mxCell>
        <mxCell id="WtPHQBsvvFfomwOvvqpD-106" value="0,n" style="resizable=0;html=1;whiteSpace=wrap;align=left;verticalAlign=bottom;" connectable="0" vertex="1" parent="WtPHQBsvvFfomwOvvqpD-105">
          <mxGeometry x="-1" relative="1" as="geometry">
            <mxPoint x="2" as="offset" />
          </mxGeometry>
        </mxCell>
        <mxCell id="WtPHQBsvvFfomwOvvqpD-108" value="" style="endArrow=none;html=1;rounded=0;entryX=0.5;entryY=0;entryDx=0;entryDy=0;" edge="1" parent="1" target="WtPHQBsvvFfomwOvvqpD-19">
          <mxGeometry relative="1" as="geometry">
            <mxPoint x="750" y="-415" as="sourcePoint" />
            <mxPoint x="610" y="-260" as="targetPoint" />
          </mxGeometry>
        </mxCell>
        <mxCell id="WtPHQBsvvFfomwOvvqpD-110" value="1,n" style="resizable=0;html=1;whiteSpace=wrap;align=right;verticalAlign=bottom;" connectable="0" vertex="1" parent="WtPHQBsvvFfomwOvvqpD-108">
          <mxGeometry x="1" relative="1" as="geometry">
            <mxPoint y="-15" as="offset" />
          </mxGeometry>
        </mxCell>
        <mxCell id="WtPHQBsvvFfomwOvvqpD-111" value="Rating" style="shape=table;startSize=30;container=1;collapsible=1;childLayout=tableLayout;fixedRows=1;rowLines=0;fontStyle=1;align=center;resizeLast=1;html=1;" vertex="1" parent="1">
          <mxGeometry x="320" y="130" width="180" height="120" as="geometry" />
        </mxCell>
        <mxCell id="WtPHQBsvvFfomwOvvqpD-112" value="" style="shape=tableRow;horizontal=0;startSize=0;swimlaneHead=0;swimlaneBody=0;fillColor=none;collapsible=0;dropTarget=0;points=[[0,0.5],[1,0.5]];portConstraint=eastwest;top=0;left=0;right=0;bottom=1;" vertex="1" parent="WtPHQBsvvFfomwOvvqpD-111">
          <mxGeometry y="30" width="180" height="30" as="geometry" />
        </mxCell>
        <mxCell id="WtPHQBsvvFfomwOvvqpD-113" value="PK" style="shape=partialRectangle;connectable=0;fillColor=none;top=0;left=0;bottom=0;right=0;fontStyle=1;overflow=hidden;whiteSpace=wrap;html=1;" vertex="1" parent="WtPHQBsvvFfomwOvvqpD-112">
          <mxGeometry width="30" height="30" as="geometry">
            <mxRectangle width="30" height="30" as="alternateBounds" />
          </mxGeometry>
        </mxCell>
        <mxCell id="WtPHQBsvvFfomwOvvqpD-114" value="Rating_ID" style="shape=partialRectangle;connectable=0;fillColor=none;top=0;left=0;bottom=0;right=0;align=left;spacingLeft=6;fontStyle=5;overflow=hidden;whiteSpace=wrap;html=1;" vertex="1" parent="WtPHQBsvvFfomwOvvqpD-112">
          <mxGeometry x="30" width="150" height="30" as="geometry">
            <mxRectangle width="150" height="30" as="alternateBounds" />
          </mxGeometry>
        </mxCell>
        <mxCell id="WtPHQBsvvFfomwOvvqpD-115" value="" style="shape=tableRow;horizontal=0;startSize=0;swimlaneHead=0;swimlaneBody=0;fillColor=none;collapsible=0;dropTarget=0;points=[[0,0.5],[1,0.5]];portConstraint=eastwest;top=0;left=0;right=0;bottom=0;" vertex="1" parent="WtPHQBsvvFfomwOvvqpD-111">
          <mxGeometry y="60" width="180" height="30" as="geometry" />
        </mxCell>
        <mxCell id="WtPHQBsvvFfomwOvvqpD-116" value="" style="shape=partialRectangle;connectable=0;fillColor=none;top=0;left=0;bottom=0;right=0;editable=1;overflow=hidden;whiteSpace=wrap;html=1;" vertex="1" parent="WtPHQBsvvFfomwOvvqpD-115">
          <mxGeometry width="30" height="30" as="geometry">
            <mxRectangle width="30" height="30" as="alternateBounds" />
          </mxGeometry>
        </mxCell>
        <mxCell id="WtPHQBsvvFfomwOvvqpD-117" value="Rating_score" style="shape=partialRectangle;connectable=0;fillColor=none;top=0;left=0;bottom=0;right=0;align=left;spacingLeft=6;overflow=hidden;whiteSpace=wrap;html=1;" vertex="1" parent="WtPHQBsvvFfomwOvvqpD-115">
          <mxGeometry x="30" width="150" height="30" as="geometry">
            <mxRectangle width="150" height="30" as="alternateBounds" />
          </mxGeometry>
        </mxCell>
        <mxCell id="WtPHQBsvvFfomwOvvqpD-118" value="" style="shape=tableRow;horizontal=0;startSize=0;swimlaneHead=0;swimlaneBody=0;fillColor=none;collapsible=0;dropTarget=0;points=[[0,0.5],[1,0.5]];portConstraint=eastwest;top=0;left=0;right=0;bottom=0;" vertex="1" parent="WtPHQBsvvFfomwOvvqpD-111">
          <mxGeometry y="90" width="180" height="30" as="geometry" />
        </mxCell>
        <mxCell id="WtPHQBsvvFfomwOvvqpD-119" value="" style="shape=partialRectangle;connectable=0;fillColor=none;top=0;left=0;bottom=0;right=0;editable=1;overflow=hidden;whiteSpace=wrap;html=1;" vertex="1" parent="WtPHQBsvvFfomwOvvqpD-118">
          <mxGeometry width="30" height="30" as="geometry">
            <mxRectangle width="30" height="30" as="alternateBounds" />
          </mxGeometry>
        </mxCell>
        <mxCell id="WtPHQBsvvFfomwOvvqpD-120" value="Rating_Date" style="shape=partialRectangle;connectable=0;fillColor=none;top=0;left=0;bottom=0;right=0;align=left;spacingLeft=6;overflow=hidden;whiteSpace=wrap;html=1;" vertex="1" parent="WtPHQBsvvFfomwOvvqpD-118">
          <mxGeometry x="30" width="150" height="30" as="geometry">
            <mxRectangle width="150" height="30" as="alternateBounds" />
          </mxGeometry>
        </mxCell>
        <mxCell id="WtPHQBsvvFfomwOvvqpD-124" value="Gives" style="shape=rhombus;perimeter=rhombusPerimeter;whiteSpace=wrap;html=1;align=center;" vertex="1" parent="1">
          <mxGeometry x="130" y="175" width="120" height="60" as="geometry" />
        </mxCell>
        <mxCell id="WtPHQBsvvFfomwOvvqpD-125" value="" style="endArrow=none;html=1;rounded=0;exitX=1;exitY=0.5;exitDx=0;exitDy=0;entryX=0;entryY=0.5;entryDx=0;entryDy=0;" edge="1" parent="1" source="WtPHQBsvvFfomwOvvqpD-7" target="WtPHQBsvvFfomwOvvqpD-124">
          <mxGeometry relative="1" as="geometry">
            <mxPoint x="460" y="-110" as="sourcePoint" />
            <mxPoint x="620" y="-110" as="targetPoint" />
          </mxGeometry>
        </mxCell>
        <mxCell id="WtPHQBsvvFfomwOvvqpD-126" value="0,n" style="resizable=0;html=1;whiteSpace=wrap;align=left;verticalAlign=bottom;" connectable="0" vertex="1" parent="WtPHQBsvvFfomwOvvqpD-125">
          <mxGeometry x="-1" relative="1" as="geometry">
            <mxPoint x="11" y="-10" as="offset" />
          </mxGeometry>
        </mxCell>
        <mxCell id="WtPHQBsvvFfomwOvvqpD-128" value="" style="endArrow=none;html=1;rounded=0;exitX=1;exitY=0.5;exitDx=0;exitDy=0;entryX=0;entryY=0.5;entryDx=0;entryDy=0;" edge="1" parent="1" source="WtPHQBsvvFfomwOvvqpD-124" target="WtPHQBsvvFfomwOvvqpD-115">
          <mxGeometry relative="1" as="geometry">
            <mxPoint x="230" y="40" as="sourcePoint" />
            <mxPoint x="390" y="40" as="targetPoint" />
          </mxGeometry>
        </mxCell>
        <mxCell id="WtPHQBsvvFfomwOvvqpD-130" value="1,1" style="resizable=0;html=1;whiteSpace=wrap;align=right;verticalAlign=bottom;" connectable="0" vertex="1" parent="WtPHQBsvvFfomwOvvqpD-128">
          <mxGeometry x="1" relative="1" as="geometry">
            <mxPoint x="-11" as="offset" />
          </mxGeometry>
        </mxCell>
        <mxCell id="WtPHQBsvvFfomwOvvqpD-131" value="is about" style="shape=rhombus;perimeter=rhombusPerimeter;whiteSpace=wrap;html=1;align=center;" vertex="1" parent="1">
          <mxGeometry x="410" width="120" height="60" as="geometry" />
        </mxCell>
        <mxCell id="WtPHQBsvvFfomwOvvqpD-132" value="" style="endArrow=none;html=1;rounded=0;exitX=0.5;exitY=0;exitDx=0;exitDy=0;entryX=0.5;entryY=1;entryDx=0;entryDy=0;" edge="1" parent="1" source="WtPHQBsvvFfomwOvvqpD-111" target="WtPHQBsvvFfomwOvvqpD-131">
          <mxGeometry relative="1" as="geometry">
            <mxPoint x="460" y="-110" as="sourcePoint" />
            <mxPoint x="620" y="-110" as="targetPoint" />
          </mxGeometry>
        </mxCell>
        <mxCell id="WtPHQBsvvFfomwOvvqpD-133" value="1,1" style="resizable=0;html=1;whiteSpace=wrap;align=left;verticalAlign=bottom;" connectable="0" vertex="1" parent="WtPHQBsvvFfomwOvvqpD-132">
          <mxGeometry x="-1" relative="1" as="geometry">
            <mxPoint x="15" as="offset" />
          </mxGeometry>
        </mxCell>
        <mxCell id="WtPHQBsvvFfomwOvvqpD-135" value="" style="endArrow=none;html=1;rounded=0;exitX=0.5;exitY=0;exitDx=0;exitDy=0;entryX=0;entryY=0.5;entryDx=0;entryDy=0;" edge="1" parent="1" source="WtPHQBsvvFfomwOvvqpD-131" target="WtPHQBsvvFfomwOvvqpD-35">
          <mxGeometry relative="1" as="geometry">
            <mxPoint x="460" y="-110" as="sourcePoint" />
            <mxPoint x="620" y="-110" as="targetPoint" />
          </mxGeometry>
        </mxCell>
        <mxCell id="WtPHQBsvvFfomwOvvqpD-136" value="" style="resizable=0;html=1;whiteSpace=wrap;align=left;verticalAlign=bottom;" connectable="0" vertex="1" parent="WtPHQBsvvFfomwOvvqpD-135">
          <mxGeometry x="-1" relative="1" as="geometry">
            <mxPoint x="10" y="-10" as="offset" />
          </mxGeometry>
        </mxCell>
        <mxCell id="WtPHQBsvvFfomwOvvqpD-137" value="0,n" style="resizable=0;html=1;whiteSpace=wrap;align=right;verticalAlign=bottom;" connectable="0" vertex="1" parent="WtPHQBsvvFfomwOvvqpD-135">
          <mxGeometry x="1" relative="1" as="geometry">
            <mxPoint x="-21" y="10" as="offset" />
          </mxGeometry>
        </mxCell>
        <mxCell id="WtPHQBsvvFfomwOvvqpD-144" value="contains a" style="shape=rhombus;perimeter=rhombusPerimeter;whiteSpace=wrap;html=1;align=center;" vertex="1" parent="1">
          <mxGeometry x="240" width="120" height="60" as="geometry" />
        </mxCell>
        <mxCell id="WtPHQBsvvFfomwOvvqpD-145" value="" style="endArrow=none;html=1;rounded=0;exitX=0.469;exitY=1.033;exitDx=0;exitDy=0;exitPerimeter=0;entryX=0.5;entryY=0;entryDx=0;entryDy=0;" edge="1" parent="1" source="WtPHQBsvvFfomwOvvqpD-77" target="WtPHQBsvvFfomwOvvqpD-144">
          <mxGeometry relative="1" as="geometry">
            <mxPoint x="350" y="100" as="sourcePoint" />
            <mxPoint x="510" y="100" as="targetPoint" />
          </mxGeometry>
        </mxCell>
        <mxCell id="WtPHQBsvvFfomwOvvqpD-146" value="1,1" style="resizable=0;html=1;whiteSpace=wrap;align=left;verticalAlign=bottom;" connectable="0" vertex="1" parent="WtPHQBsvvFfomwOvvqpD-145">
          <mxGeometry x="-1" relative="1" as="geometry">
            <mxPoint x="16" y="34" as="offset" />
          </mxGeometry>
        </mxCell>
        <mxCell id="WtPHQBsvvFfomwOvvqpD-148" value="" style="endArrow=none;html=1;rounded=0;exitX=0.5;exitY=1;exitDx=0;exitDy=0;entryX=0.25;entryY=0;entryDx=0;entryDy=0;" edge="1" parent="1" source="WtPHQBsvvFfomwOvvqpD-144" target="WtPHQBsvvFfomwOvvqpD-111">
          <mxGeometry relative="1" as="geometry">
            <mxPoint x="350" y="100" as="sourcePoint" />
            <mxPoint x="510" y="100" as="targetPoint" />
          </mxGeometry>
        </mxCell>
        <mxCell id="WtPHQBsvvFfomwOvvqpD-149" value="" style="resizable=0;html=1;whiteSpace=wrap;align=left;verticalAlign=bottom;" connectable="0" vertex="1" parent="WtPHQBsvvFfomwOvvqpD-148">
          <mxGeometry x="-1" relative="1" as="geometry">
            <mxPoint y="30" as="offset" />
          </mxGeometry>
        </mxCell>
        <mxCell id="WtPHQBsvvFfomwOvvqpD-150" value="0,1" style="resizable=0;html=1;whiteSpace=wrap;align=right;verticalAlign=bottom;" connectable="0" vertex="1" parent="WtPHQBsvvFfomwOvvqpD-148">
          <mxGeometry x="1" relative="1" as="geometry">
            <mxPoint x="5" y="-10" as="offset" />
          </mxGeometry>
        </mxCell>
        <mxCell id="WtPHQBsvvFfomwOvvqpD-153" value="Character_Name" style="ellipse;whiteSpace=wrap;html=1;align=center;" vertex="1" parent="1">
          <mxGeometry x="700" y="-550" width="100" height="40" as="geometry" />
        </mxCell>
        <mxCell id="WtPHQBsvvFfomwOvvqpD-154" value="" style="endArrow=none;html=1;rounded=0;exitX=0.5;exitY=1;exitDx=0;exitDy=0;entryX=0.5;entryY=0;entryDx=0;entryDy=0;" edge="1" parent="1" source="WtPHQBsvvFfomwOvvqpD-153" target="WtPHQBsvvFfomwOvvqpD-104">
          <mxGeometry relative="1" as="geometry">
            <mxPoint x="480" y="-360" as="sourcePoint" />
            <mxPoint x="640" y="-360" as="targetPoint" />
          </mxGeometry>
        </mxCell>
      </root>
    </mxGraphModel>
  </diagram>
</mxfile>
